PathFileType	4	(X/Y/Z)	C:/Users/beibeiliu/ov580/test_trc\sequence.39_training_dense_left.trc
DataRate	CameraRate	NumFrames	NumMarkers	Units	OrigDataRate	OrigDataStartFrame	OrigNumFrames
120	120	19	19	mm	120	301	400
Frame#	Time	ThumbCMC			ThumbMCP			ThumbIP			ThumbTip			IndexMCP			IndexPIP			IndexTip			MiddleMCP			MiddlePIP			MiddleTip			RingMCP			RingPIP			RingTip			PinkyMCP			PinkyPIP			PinkyTip			BackHand1			BackHand2			BackHand3	
		X0	Y0	Z0	X1	Y1	Z1	X2	Y2	Z2	X3	Y3	Z3	X4	Y4	Z4	X5	Y5	Z5	X6	Y6	Z6	X7	Y7	Z7	X8	Y8	Z8	X9	Y9	Z9	X10	Y10	Z10	X11	Y11	Z11	X12	Y12	Z12	X13	Y13	Z13	X14	Y14	Z14	X15	Y15	Z15	X16	Y16	Z16	X17	Y17	Z17	X18	Y18	Z18	
300	2.5	-174.915	36.3545	39.5972	-160.44	37.1319	10.2527	-153.254	30.7703	-9.11815	-142.147	22.9323	-29.2716	-168.366	3.11818	-23.7035	-141.619	5.6352	-29.1951	-127.75	9.42726	-2.9093	-162.459	-15.3811	-18.5126	-133.627	-11.7296	-17.9232	-128.977	2.89499	9.1826	-159.26	-28.5567	-7.82323	-135.373	-20.8902	-5.6933	-131.54	-3.9896	20.9204	-158.729	-40.1782	6.15638	-137.702	-33.1005	5.00575	-130.932	-14.2585	18.8678	-193.339	-13.9198	31.2671	-200.601	-4.70827	51.5711	-198.515	10.4582	33.4549	
301	2.50833	-174.115	34.0859	37.6242	-159.546	38.566	10.1964	-150.14	34.1223	-8.8315	-142.52	23.678	-25.398	-170.41	4.77166	-20.7414	-144.016	2.63959	-31.3788	-124.566	11.93	-9.95831	-165.817	-13.7404	-17.0089	-132.421	-13.5453	-18.1573	-124.676	-3.37066	8.217	-162.492	-25.4252	-6.99898	-133.541	-25.0376	-6.67409	-128.294	-3.648	15.5907	-160.625	-41.0737	6.71567	-137.454	-33.8533	4.33547	-128.073	-15.4064	16.807	-192.744	-16.7883	32.9788	-199.745	-6.57372	54.2273	-198.677	14.4691	33.0308	
302	2.51667	-172.81	37.5954	38.5863	-158.127	41.1748	10.428	-150.926	34.1122	-6.30086	-140.608	17.9263	-27.6869	-170.974	9.30112	-22.9003	-145.777	2.23691	-34.7097	-120.623	9.33691	-13.8622	-164.149	-14.178	-19.9287	-133.802	-13.7934	-23.4939	-119.385	-3.09439	-1.08373	-161.196	-27.126	-10.6123	-135.122	-27.5752	-9.93242	-123.521	-7.91714	12.1697	-160.964	-38.3989	5.99255	-138.225	-32.4069	1.16895	-125.088	-17.224	15.342	-193.031	-14.7509	32.9076	-197.219	-8.16875	55.8962	-195.817	16.3886	36.3588	
303	2.525	-171.756	35.8576	40.9188	-158.192	42.2814	11.639	-150.909	31.4508	-5.7619	-139.875	16.42	-24.043	-171.459	5.21975	-20.9502	-144.495	-1.52169	-33.7925	-120.941	4.52814	-21.0684	-164.674	-13.5583	-23.0591	-135.547	-16.9241	-25.9528	-116.863	-3.97996	-5.0847	-164.334	-28.9028	-6.69617	-138.256	-24.6933	-14.5289	-121.698	-12.0893	5.56661	-163.408	-36.4872	6.20453	-136.364	-35.24	1.49748	-124.16	-21.4308	11.001	-192.411	-14.9858	29.8127	-198.542	-8.65531	53.9456	-195.512	14.8938	36.7252	
304	2.53333	-171.642	34.5609	40.3011	-156.327	42.4468	12.722	-151.59	27.7187	-6.25258	-143.331	8.12917	-19.2278	-170.275	6.39846	-21.1419	-145.57	-1.3699	-34.5439	-120.592	0.465609	-23.2271	-166.975	-14.8423	-19.3294	-142.031	-19.3775	-29.4987	-114.916	-11.924	-9.27168	-163.691	-27.6127	-10.6683	-136.696	-24.5582	-15.9645	-121.138	-16.8428	-0.306813	-162.93	-38.73	5.25046	-140.763	-35.0468	-1.12612	-122.547	-22.9263	7.67472	-194.379	-11.3259	33.3782	-196.011	-3.05973	53.9485	-195.245	18.3717	34.7561	
305	2.54167	-171.724	34.7699	39.7019	-157.052	38.5802	16.4032	-149.438	27.7657	-7.27462	-141.197	5.7799	-18.4422	-168.909	8.76017	-24.6915	-148.596	-1.92448	-36.1478	-118.465	-0.122181	-24.3628	-169.682	-13.6842	-17.9492	-143.246	-17.8808	-31.4513	-114.658	-11.6173	-14.4055	-166.432	-28.8452	-8.69071	-141.21	-32.2752	-16.0876	-120.714	-17.89	-2.64436	-167.51	-40.7375	8.13239	-143.284	-39.0003	-2.95627	-122.811	-24.9007	5.82308	-193.081	-12.876	33.1013	-199.116	-7.22894	53.4556	-195.296	16.5549	37.6797	
306	2.55	-169.675	34.2977	44.3523	-155.84	36.8952	16.5332	-149.049	24.6743	-6.82757	-140.372	6.56852	-17.0069	-169.218	5.86245	-21.211	-145.703	-3.60363	-34.6818	-120.328	-3.16204	-25.9332	-168.721	-13.1021	-19.2148	-142.407	-19.413	-30.6854	-113.547	-14.1579	-13.7672	-165.821	-30.151	-9.63064	-137.551	-29.2181	-16.3129	-119.534	-23.5816	-2.9084	-168.51	-37.1029	6.30514	-144.098	-38.1667	-3.0596	-124.239	-30.5284	4.55531	-193.705	-11.9455	31.315	-198.4	-5.60002	54.7838	-195.331	13.8689	37.461	
307	2.55833	-168.721	37.6663	44.7426	-151.684	41.6054	17.7699	-146.935	25.9952	-2.47335	-140.602	3.61294	-14.3215	-169.015	8.28712	-20.7193	-146.929	-3.63256	-33.8368	-121.565	-6.3003	-26.5558	-166.998	-14.1416	-18.0404	-137.979	-21.4791	-29.1464	-113.932	-17.7923	-13.0369	-165.594	-26.4817	-10.2526	-139.218	-28.8543	-16.1963	-119.152	-26.5446	-2.45039	-167.04	-40.0068	5.91683	-146.404	-40.2927	-3.16234	-122.292	-31.7816	4.75149	-192.91	-13.1983	33.8736	-197.836	-3.9415	53.919	-194.278	18.4202	37.7798	
308	2.56667	-167.925	33.7719	43.4005	-151.481	40.4958	20.1472	-143.536	28.534	-2.70084	-137.521	6.57139	-12.5848	-167.229	9.44016	-19.4808	-144.437	-0.356783	-35.2917	-119.933	-5.20825	-25.8453	-167.672	-12.2051	-17.2098	-140.226	-18.7863	-28.3538	-114.299	-20.8784	-13.175	-164.987	-28.9073	-8.56463	-140.134	-32.3268	-14.9717	-120.124	-23.3824	-3.07392	-168.923	-40.7906	9.72868	-143.534	-42.0698	-0.580738	-124.175	-35.5412	2.49211	-193.057	-9.72628	33.5571	-197.114	-6.16711	56.6845	-192.582	14.4872	37.9912	
309	2.575	-167.538	34.3793	43.2007	-152.991	36.1743	20.4889	-144.862	25.2756	-2.60118	-138.808	1.67506	-14.0397	-168.137	9.61015	-17.6004	-145.846	-3.78536	-32.0056	-118.596	-4.86508	-25.6649	-166.357	-9.33206	-17.6993	-141.323	-16.3067	-28.8044	-114.391	-20.5206	-11.571	-167.454	-28.4909	-5.32233	-139.966	-28.4367	-14.6052	-117.012	-23.3863	2.15949	-166.853	-37.0741	6.79018	-145.473	-40.1718	-1.06147	-122.656	-31.6376	3.43036	-194.791	-13.8938	34.1991	-196.65	-4.55654	60.1085	-193.51	14.6851	36.5319	
310	2.58333	-168.243	33.8982	44.2084	-151.621	38.4223	19.1495	-145.459	26.095	1.89552	-136.385	6.9726	-13.179	-168.205	10.11	-18.1063	-146.676	-3.79962	-31.1522	-120.462	-6.78926	-22.4305	-166.322	-10.7307	-16.7899	-140.694	-20.2804	-27.1636	-112.137	-18.8097	-11.6221	-167.688	-28.4363	-5.13256	-140.988	-30.0062	-14.5619	-117.498	-26.4164	2.26043	-166.798	-39.1503	7.79122	-143.625	-40.9249	0.419081	-124.653	-32.0313	3.07546	-194.39	-15.3844	35.3798	-196.991	-2.5543	57.3539	-191.615	16.9146	41.7139	
311	2.59167	-167.773	32.4756	47.8054	-152.232	34.919	20.3377	-142.205	30.0899	-0.997829	-137.916	7.91592	-12.9421	-168.912	4.71046	-16.9529	-146.977	-3.26422	-30.8011	-119.369	-2.14722	-23.4953	-167.67	-9.4695	-16.2992	-141.069	-21.5282	-26.2801	-112.362	-17.5452	-10.3868	-167.566	-27.4013	-5.51291	-140.843	-32.6277	-13.669	-118.738	-26.1896	-0.471725	-166.45	-37.7328	6.87362	-145.58	-39.0607	-1.14241	-123.509	-34.8442	4.29214	-193.124	-15.844	35.3694	-196.122	-3.02518	61.0735	-193.207	17.0357	36.5813	
312	2.6	-167.71	35.6031	43.8743	-152.923	35.3351	20.6647	-144.272	28.2059	1.03378	-137.034	8.71548	-15.5147	-168.746	7.11114	-17.9712	-143.825	-2.50021	-29.7406	-118.268	-4.4808	-17.6394	-168.256	-14.0845	-14.544	-138.035	-16.5846	-26.8009	-112.363	-15.8637	-8.15584	-166.536	-29.2175	-6.33901	-141.748	-29.565	-14.2181	-119.213	-21.7028	-0.185484	-165.998	-39.8247	6.70482	-144.364	-39.6961	-0.0479657	-123.543	-36.6277	2.53422	-193.305	-15.0862	33.8174	-196.443	-6.76632	61.3537	-191.896	15.1999	41.599	
313	2.60833	-166.502	35.2661	47.7844	-151.957	35.7664	24.3038	-143.57	25.6769	-2.77443	-134.793	12.0642	-18.0718	-169.018	8.09334	-15.567	-146.566	-4.47925	-28.4115	-118.932	-3.86191	-16.5514	-167.29	-10.2027	-16.6746	-139.735	-22.4129	-24.5744	-113.152	-16.8215	-6.66291	-165.863	-29.2848	-7.33414	-140.115	-34.6489	-11.1403	-118.238	-23.7645	1.96592	-168.72	-39.3903	10.6038	-145.777	-41.5371	-0.691014	-124.219	-34.1676	4.86112	-195.035	-12.5235	31.9636	-199.399	-6.68621	61.1187	-192.916	15.538	39.818	
314	2.61667	-167.294	32.5876	47.8403	-150.591	32.9769	21.6207	-141.157	28.4217	0.817438	-134.186	12.2398	-14.8541	-168.544	6.40158	-15.0643	-144.152	-4.82234	-27.305	-117.786	-3.07067	-12.9742	-167.346	-13.9888	-13.9837	-139.398	-20.7337	-23.8919	-114.942	-16.8612	-3.9821	-167.743	-32.3162	-3.91128	-142.164	-30.3697	-12.1573	-120.008	-24.2388	1.85837	-167.72	-39.8055	7.28562	-148.08	-44.0746	1.07277	-123.626	-36.3079	6.12154	-193.855	-16.7627	32.0944	-198.213	-8.60756	61.3376	-193.254	10.9916	38.9417	
315	2.625	-165.996	32.6449	46.7683	-148.809	32.0243	22.4285	-140.535	25.8917	2.15424	-132.399	12.9384	-20.6887	-164.117	4.69181	-19.7086	-139.776	-2.71953	-28.281	-116.737	-1.36253	-10.9396	-162.821	-14.0034	-17.7668	-134.257	-19.9397	-21.9941	-115.441	-17.713	2.32166	-165.845	-30.0303	-5.59864	-137.789	-31.7679	-9.03697	-119.898	-25.3968	7.83768	-167.294	-40.7245	7.8054	-143.512	-40.9786	1.7256	-123.408	-30.3717	13.2463	-194.043	-12.0686	33.1358	-198.868	-8.88585	58.9768	-194.094	12.3222	39.6503	
316	2.63333	-165.129	29.9309	45.04	-149.479	29.055	20.143	-138.776	27.5441	-3.57077	-132.19	15.6665	-16.2761	-166.404	7.28907	-15.9626	-141.498	-5.18117	-25.9877	-115.705	0.925314	-5.10494	-163.232	-12.5578	-16.2213	-135.107	-22.2234	-17.785	-117.405	-14.3602	9.81371	-162.917	-32.4682	-6.46159	-137.023	-32.584	-7.31702	-121.518	-24.7036	13.2327	-164.841	-45.0819	6.73908	-141.85	-42.1766	5.4912	-127.301	-27.003	15.9115	-194.635	-12.5716	33.8739	-199.59	-5.24859	58.9206	-193.842	16.1611	37.315	
317	2.64167	-163.267	33.1827	43.002	-145.828	30.179	22.1016	-136.31	27.3048	-1.93284	-128.453	18.0734	-21.0773	-162.664	3.64107	-18.5689	-138.137	-4.35687	-24.0467	-118.593	-2.37054	2.53096	-163.685	-15.9012	-14.0213	-130.974	-16.3478	-15.6998	-120.937	-13.9394	12.7468	-160.758	-32.1343	-5.31945	-135.77	-28.5091	-4.90327	-124.891	-18.4996	20.1482	-165.746	-42.7748	8.48494	-139.53	-38.7069	7.64517	-128.592	-20.6039	24.6911	-196.245	-14.3703	33.3628	-197.35	-5.80104	57.8988	-191.316	14.5761	36.9438	
318	2.65	-163.442	33.1951	41.9213	-145.655	30.4389	21.5299	-136.023	26.5486	-3.14255	-129.255	17.3645	-18.829	-159.855	5.26167	-20.0488	-133.406	0.93536	-23.0659	-119.046	-0.254255	3.43448	-156.638	-12.5434	-17.4504	-130.648	-20.0347	-11.3223	-125.143	-7.5779	18.2913	-161.674	-27.1506	-4.38749	-132.494	-26.7555	-0.11651	-129.727	-13.0822	27.2229	-163.861	-42.8249	9.58698	-139.595	-34.8431	9.45442	-134.227	-20.7227	27.0486	-194.62	-13.9408	32.9457	-196.799	-5.65809	57.7124	-193.607	15.7617	37.7645	
